<mxfile host="65bd71144e">
    <diagram id="WeRvMHGyd5pOWe0ULhX9" name="Page-1">
        <mxGraphModel dx="857" dy="899" grid="1" gridSize="10" guides="1" tooltips="1" connect="1" arrows="1" fold="1" page="1" pageScale="1" pageWidth="850" pageHeight="1100" math="0" shadow="0">
            <root>
                <mxCell id="0"/>
                <mxCell id="1" parent="0"/>
                <mxCell id="2" value="END OF MONTH" style="shape=note;whiteSpace=wrap;html=1;backgroundOutline=1;darkOpacity=0.05;fillColor=#f0a30a;strokeColor=#BD7000;fontColor=#000000;fontSize=16;fontStyle=1;align=left;verticalAlign=top;spacing=10;fontFamily=Comic Sans MS;" vertex="1" parent="1">
                    <mxGeometry x="40" y="80" width="120" height="120" as="geometry"/>
                </mxCell>
                <mxCell id="3" value="BILLABLE AMOUNT CALCULATED" style="shape=note;whiteSpace=wrap;html=1;backgroundOutline=1;darkOpacity=0.05;fillColor=#f0a30a;strokeColor=#BD7000;fontColor=#000000;fontSize=16;fontStyle=1;align=left;verticalAlign=top;spacing=10;fontFamily=Comic Sans MS;" vertex="1" parent="1">
                    <mxGeometry x="200" y="80" width="120" height="120" as="geometry"/>
                </mxCell>
                <mxCell id="4" value="BILLABLE AMOUNT VERIFIED" style="shape=note;whiteSpace=wrap;html=1;backgroundOutline=1;darkOpacity=0.05;fillColor=#f0a30a;strokeColor=#BD7000;fontColor=#000000;fontSize=16;fontStyle=1;align=left;verticalAlign=top;spacing=10;fontFamily=Comic Sans MS;" vertex="1" parent="1">
                    <mxGeometry x="360" y="80" width="120" height="120" as="geometry"/>
                </mxCell>
                <mxCell id="5" value="INVOICE PREPARED" style="shape=note;whiteSpace=wrap;html=1;backgroundOutline=1;darkOpacity=0.05;fillColor=#f0a30a;strokeColor=#BD7000;fontColor=#000000;fontSize=16;fontStyle=1;align=left;verticalAlign=top;spacing=10;fontFamily=Comic Sans MS;" vertex="1" parent="1">
                    <mxGeometry x="520" y="80" width="120" height="120" as="geometry"/>
                </mxCell>
                <mxCell id="6" value="" style="html=1;verticalLabelPosition=bottom;align=center;labelBackgroundColor=#ffffff;verticalAlign=top;strokeWidth=2;strokeColor=#000000;shadow=0;dashed=0;shape=mxgraph.ios7.icons.clock;fillColor=none;" vertex="1" parent="1">
                    <mxGeometry x="120" y="160" width="30" height="30" as="geometry"/>
                </mxCell>
                <mxCell id="7" value="time" style="text;html=1;align=center;verticalAlign=middle;whiteSpace=wrap;rounded=0;fontStyle=1;fontSize=16;" vertex="1" parent="1">
                    <mxGeometry x="30" y="30" width="60" height="30" as="geometry"/>
                </mxCell>
                <mxCell id="9" value="" style="endArrow=classic;html=1;exitX=1;exitY=0.5;exitDx=0;exitDy=0;" edge="1" parent="1" source="7">
                    <mxGeometry width="50" height="50" relative="1" as="geometry">
                        <mxPoint x="400" y="240" as="sourcePoint"/>
                        <mxPoint x="640" y="50" as="targetPoint"/>
                    </mxGeometry>
                </mxCell>
            </root>
        </mxGraphModel>
    </diagram>
</mxfile>
